<svg width="25" height="25" viewBox="0 0 25 25" fill="none" xmlns="http://www.w3.org/2000/svg">
<path d="M5.94141 10.9531C5.80469 10.0078 5.63672 8.35938 5.63672 8.35938H5.61719C5.61719 8.35938 5.44922 10.0078 5.3125 10.9531L4.87891 13.8828H6.36719L5.94141 10.9531ZM24.0625 0H13.125V25H24.0625C24.582 25 25 24.1641 25 23.125V1.875C25 0.835938 24.582 0 24.0625 0ZM23.125 9.375C23.125 9.89062 22.9141 10.3125 22.6562 10.3125H22.2109C21.9414 12.1562 21.3633 14.0156 20.543 15.7734C20.8711 16.2734 21.2109 16.75 21.5625 17.1797C21.7773 17.4453 21.8477 18 21.7227 18.4453L21.4141 19.5312C21.2812 19.9922 20.9883 20.1406 20.7617 19.8672C20.2695 19.2578 19.8047 18.6094 19.3789 17.9219C18.9531 18.6016 18.4922 19.2578 17.9961 19.8672C17.7695 20.1406 17.4766 19.9922 17.3438 19.5312L17.0352 18.4453C16.9102 18.0078 16.9805 17.4453 17.1992 17.1797C17.5625 16.7344 17.9023 16.2656 18.2188 15.7734C17.9102 15.1172 17.6367 14.4453 17.3984 13.7656C17.2422 13.3203 17.3125 12.7031 17.543 12.4297L17.7969 12.125L18.082 11.7891C18.293 11.5391 18.5664 11.6562 18.707 12.0547C18.9023 12.6016 19.1289 13.1484 19.3867 13.6875C19.9141 12.5781 20.3164 11.4297 20.5586 10.3125H16.0938C15.8359 10.3125 15.625 9.89062 15.625 9.375V8.125C15.625 7.60938 15.8359 7.1875 16.0938 7.1875H18.5938V5.9375C18.5938 5.42188 18.8047 5 19.0625 5H19.6875C19.9453 5 20.1562 5.42188 20.1562 5.9375V7.1875H22.6562C22.9141 7.1875 23.125 7.60938 23.125 8.125V9.375ZM0 1.875V23.125C0 24.1641 0.417969 25 0.9375 25H11.875V0H0.9375C0.417969 0 0 0.835938 0 1.875ZM2.30078 18.7578L4.54688 5.54688C4.61328 5.16406 4.78906 4.91406 4.99219 4.91406H6.26172C6.46094 4.91406 6.64062 5.17188 6.70703 5.54688L8.95312 18.7578C9.05469 19.3672 8.83203 20 8.50781 20H7.61328C7.51219 19.9999 7.41383 19.9344 7.33288 19.8133C7.25192 19.6922 7.1927 19.522 7.16406 19.3281L6.79688 16.8359H4.44531L4.08984 19.3203C4.03125 19.7187 3.84766 20 3.64062 20H2.74609C2.42578 20 2.19922 19.3672 2.30078 18.7578Z" fill="black"/>
</svg>
